<svg width="70" height="70" viewBox="0 0 70 70" fill="none" xmlns="http://www.w3.org/2000/svg">
<circle cx="35" cy="35" r="35" fill="#58BEBF" fill-opacity="0.2"/>
<path fill-rule="evenodd" clip-rule="evenodd" d="M29.4251 40.1037C29.4251 37.0535 31.9067 34.5718 34.957 34.5718C38.0074 34.5718 40.4889 37.0535 40.4889 40.1037C40.4889 43.1539 38.0073 45.6356 34.957 45.6356C31.9068 45.6356 29.4251 43.154 29.4251 40.1037ZM31.1225 40.7647L33.8596 43.5019L38.7915 38.57L37.5486 37.327L33.8596 41.016L32.3654 39.5218L31.1225 40.7647Z" fill="#58BEBF"/>
<path d="M40.5768 23.4232H38.3803C38.3803 21.5326 36.8476 20 34.957 20C33.0664 20 31.5338 21.5326 31.5338 23.4232H29.3372V27.8115H40.5768V23.4232H40.5768Z" fill="#58BEBF"/>
<path fill-rule="evenodd" clip-rule="evenodd" d="M42.3346 29.5693V23.4232H45.8736V50H24.0404V23.4232H27.5794V29.5693H42.3346ZM27.6673 40.1037C27.6673 44.1233 30.9374 47.3935 34.957 47.3935C38.9766 47.3935 42.2467 44.1233 42.2467 40.1037C42.2467 36.0843 38.9766 32.8141 34.957 32.8141C30.9375 32.8141 27.6673 36.0842 27.6673 40.1037Z" fill="#58BEBF"/>
</svg>
