<svg width="70" height="70" viewBox="0 0 70 70" fill="none" xmlns="http://www.w3.org/2000/svg">
<circle cx="35" cy="35" r="35" fill="#58BEBF" fill-opacity="0.2"/>
<path d="M51.2621 30.8582H43.8782C41.6847 30.8582 39.9066 32.6364 39.9066 34.8299V46.023C39.9066 48.2165 41.6847 49.9946 43.8782 49.9946H52.1644L53.5631 33.3609C53.6764 32.014 52.6137 30.8582 51.2621 30.8582Z" fill="#58BEBF"/>
<path d="M35.935 20.0054H34.0918L33.3796 28.8327C33.1773 31.3401 31.0833 33.2719 28.5677 33.2719H27.1838V47.5809H31.8753C31.8753 47.6151 31.8753 47.6491 31.8752 47.683C31.8738 48.9594 32.908 49.9946 34.1844 49.9946H39.2349C38.3189 48.9252 37.7637 47.5381 37.7637 46.0229V34.8298C37.7637 32.9734 38.5963 31.3088 39.9066 30.1865V23.977C39.9066 21.7836 38.1284 20.0054 35.935 20.0054V20.0054Z" fill="#58BEBF"/>
<path d="M17 31.8373H25.0409V49.0154H17V31.8373Z" fill="#58BEBF"/>
</svg>
