<svg width="190" height="34" viewBox="0 0 190 34" fill="none" xmlns="http://www.w3.org/2000/svg">
<path fill-rule="evenodd" clip-rule="evenodd" d="M113.171 5.54407V9.63367H108.477V5.54407H113.171ZM53.296 23.3425V27.0001H39.6448V6.49447H44.1376V23.3425H53.296ZM66.6016 26.3089C65.4496 26.9233 64.1056 27.2305 62.5696 27.2305C60.9952 27.2305 59.632 26.9233 58.48 26.3089C57.328 25.6945 56.44 24.8161 55.816 23.6737C55.192 22.5313 54.88 21.1825 54.88 19.6273C54.88 18.0721 55.192 16.7281 55.816 15.5953C56.44 14.4625 57.328 13.5841 58.48 12.9601C59.632 12.3361 60.9952 12.0241 62.5696 12.0241C64.1056 12.0241 65.4496 12.3361 66.6016 12.9601C67.7536 13.5841 68.6416 14.4625 69.2656 15.5953C69.8896 16.7281 70.2016 18.0721 70.2016 19.6273C70.2016 21.1825 69.8896 22.5313 69.2656 23.6737C68.6416 24.8161 67.7536 25.6945 66.6016 26.3089ZM62.5696 23.9185C61.4752 23.9185 60.64 23.5681 60.064 22.8673C59.488 22.1665 59.2 21.0865 59.2 19.6273C59.2 18.1873 59.4928 17.1169 60.0784 16.4161C60.664 15.7153 61.4944 15.3649 62.5696 15.3649C63.6256 15.3649 64.4416 15.7153 65.0176 16.4161C65.5936 17.1169 65.8816 18.1873 65.8816 19.6273C65.8816 21.0865 65.5936 22.1665 65.0176 22.8673C64.4416 23.5681 63.6256 23.9185 62.5696 23.9185ZM85.768 31.6369C84.4336 32.8465 82.4704 33.4513 79.8784 33.4513C77.5744 33.4513 75.5584 33.0001 73.8304 32.0977L74.4928 28.8721C75.3568 29.3137 76.2304 29.6401 77.1136 29.8513C77.9968 30.0625 78.8704 30.1681 79.7344 30.1681C80.9824 30.1681 81.9136 29.8801 82.528 29.3041L82.655 29.1759C83.1847 28.6003 83.4496 27.7598 83.4496 26.6545L83.449 24.1021L83.4302 24.133C83.2374 24.4261 83.0039 24.7098 82.7296 24.9841C82.2496 25.4641 81.6688 25.8529 80.9872 26.1505C80.3056 26.4481 79.5712 26.5969 78.784 26.5969C77.5168 26.5969 76.3936 26.2945 75.4144 25.6897C74.4352 25.0849 73.6672 24.2353 73.1104 23.1409C72.5536 22.0465 72.2752 20.7697 72.2752 19.3105C72.2752 17.8513 72.5536 16.5793 73.1104 15.4945C73.6672 14.4097 74.4352 13.5601 75.4144 12.9457C76.3936 12.3313 77.5168 12.0241 78.784 12.0241C79.9744 12.0241 81.0256 12.3169 81.9376 12.9025L82.1595 13.0528C82.663 13.4126 83.0669 13.8361 83.3712 14.3233L83.449 14.4571L83.4496 12.3985H87.7696V26.3089C87.7696 28.6513 87.1024 30.4273 85.768 31.6369ZM80.0512 23.2849C78.9952 23.2849 78.1552 22.9297 77.5312 22.2193C76.9072 21.5089 76.5952 20.5393 76.5952 19.3105C76.5952 18.0817 76.9024 17.1169 77.5168 16.4161C78.1312 15.7153 78.976 15.3649 80.0512 15.3649C81.1264 15.3649 81.9616 15.7201 82.5568 16.4305C83.152 17.1409 83.4496 18.1009 83.4496 19.3105C83.4496 20.5585 83.1472 21.5329 82.5424 22.2337C81.9376 22.9345 81.1072 23.2849 80.0512 23.2849ZM102.256 26.3089C101.104 26.9233 99.76 27.2305 98.224 27.2305C96.6496 27.2305 95.2864 26.9233 94.1344 26.3089C92.9824 25.6945 92.0944 24.8161 91.4704 23.6737C90.8464 22.5313 90.5344 21.1825 90.5344 19.6273C90.5344 18.0721 90.8464 16.7281 91.4704 15.5953C92.0944 14.4625 92.9824 13.5841 94.1344 12.9601C95.2864 12.3361 96.6496 12.0241 98.224 12.0241C99.76 12.0241 101.104 12.3361 102.256 12.9601C103.408 13.5841 104.296 14.4625 104.92 15.5953C105.544 16.7281 105.856 18.0721 105.856 19.6273C105.856 21.1825 105.544 22.5313 104.92 23.6737C104.296 24.8161 103.408 25.6945 102.256 26.3089ZM98.224 23.9185C97.1296 23.9185 96.2944 23.5681 95.7184 22.8673C95.1424 22.1665 94.8544 21.0865 94.8544 19.6273C94.8544 18.1873 95.1472 17.1169 95.7328 16.4161C96.3184 15.7153 97.1488 15.3649 98.224 15.3649C99.28 15.3649 100.096 15.7153 100.672 16.4161C101.248 17.1169 101.536 18.1873 101.536 19.6273C101.536 21.0865 101.248 22.1665 100.672 22.8673C100.096 23.5681 99.28 23.9185 98.224 23.9185ZM112.998 27.0001V12.3985H108.65V27.0001H112.998ZM120.889 24.8801L120.89 33.2209H116.541V16.5745C116.541 15.8833 116.526 15.1873 116.498 14.4865C116.469 13.7857 116.406 13.0897 116.31 12.3985H120.4L120.676 14.8611L120.722 14.7481C121.059 13.9881 121.6 13.3681 122.344 12.8881C123.237 12.3121 124.278 12.0241 125.469 12.0241C126.736 12.0241 127.854 12.3457 128.824 12.9889C129.794 13.6321 130.557 14.5345 131.114 15.6961C131.67 16.8577 131.949 18.1969 131.949 19.7137C131.949 21.2305 131.67 22.5553 131.114 23.6881C130.557 24.8209 129.794 25.6945 128.824 26.3089C127.854 26.9233 126.736 27.2305 125.469 27.2305C124.278 27.2305 123.237 26.9521 122.344 26.3953L122.127 26.2515C121.635 25.9052 121.242 25.4838 120.949 24.9873L120.889 24.8801ZM124.23 23.9185C123.136 23.9185 122.301 23.5537 121.725 22.8241C121.149 22.0945 120.861 21.0385 120.861 19.6561C120.861 18.2737 121.149 17.2129 121.725 16.4737C122.301 15.7345 123.136 15.3649 124.23 15.3649C125.286 15.3649 126.107 15.7489 126.693 16.5169C127.278 17.2849 127.571 18.3505 127.571 19.7137C127.571 21.0769 127.283 22.1185 126.707 22.8385C126.131 23.5585 125.306 23.9185 124.23 23.9185ZM144.923 26.0209C143.819 26.8273 142.298 27.2305 140.358 27.2305C137.574 27.2305 135.376 26.6353 133.763 25.4449L134.944 22.4209C135.712 22.9777 136.571 23.4049 137.522 23.7025C138.472 24.0001 139.427 24.1489 140.387 24.1489C141.136 24.1489 141.712 24.0289 142.115 23.7889C142.518 23.5489 142.72 23.2177 142.72 22.7953C142.72 22.4305 142.576 22.1473 142.288 21.9457C142 21.7441 141.491 21.5569 140.762 21.3841L138.371 20.8081C136.95 20.5201 135.909 20.0401 135.246 19.3681C134.584 18.6961 134.253 17.8033 134.253 16.6897C134.253 15.7873 134.517 14.9857 135.045 14.2849C135.573 13.5841 136.307 13.0321 137.248 12.6289C138.189 12.2257 139.283 12.0241 140.531 12.0241C141.587 12.0241 142.605 12.1825 143.584 12.4993C144.563 12.8161 145.456 13.2625 146.262 13.8385L145.053 16.7473C144.304 16.2289 143.541 15.8353 142.763 15.5665C141.986 15.2977 141.232 15.1633 140.502 15.1633C139.792 15.1633 139.235 15.2881 138.832 15.5377C138.429 15.7873 138.227 16.1329 138.227 16.5745C138.227 16.9009 138.347 17.1601 138.587 17.3521C138.827 17.5441 139.254 17.7169 139.869 17.8705L142.317 18.4177C143.814 18.7633 144.899 19.2817 145.571 19.9729C146.243 20.6641 146.579 21.5857 146.579 22.7377C146.579 24.1201 146.027 25.2145 144.923 26.0209ZM154.614 27.2305C155.709 27.2305 156.664 26.9665 157.48 26.4385C158.073 26.0545 158.563 25.541 158.948 24.898L158.963 24.8711L158.963 27.0001H163.197V12.3985H158.819V20.4625C158.819 21.4801 158.541 22.2961 157.984 22.9105C157.427 23.5249 156.707 23.8321 155.824 23.8321C155.037 23.8321 154.456 23.6161 154.082 23.1841C153.707 22.7521 153.52 22.0849 153.52 21.1825V12.3985H149.171V21.0961C149.171 23.1505 149.622 24.6865 150.525 25.7041C151.427 26.7217 152.79 27.2305 154.614 27.2305ZM171.059 18.9649V27.0001H166.71V16.5745C166.71 15.8833 166.696 15.1873 166.667 14.4865C166.638 13.7857 166.576 13.0897 166.48 12.3985H170.57L170.815 14.6131L170.948 14.3815C171.327 13.755 171.82 13.2428 172.427 12.8449C173.262 12.2977 174.266 12.0241 175.437 12.0241C176.762 12.0241 177.813 12.3649 178.59 13.0465L178.753 13.1979C179.123 13.5637 179.427 14.0171 179.665 14.5582L179.745 14.7551L179.841 14.5908C180.248 13.9409 180.786 13.3925 181.456 12.9457C182.378 12.3313 183.424 12.0241 184.595 12.0241C186.266 12.0241 187.504 12.5329 188.31 13.5505C189.117 14.5681 189.52 16.1041 189.52 18.1585V27.0001H185.171V18.3025C185.171 17.3041 185.008 16.5745 184.682 16.1137C184.355 15.6529 183.818 15.4225 183.069 15.4225C182.205 15.4225 181.523 15.7345 181.024 16.3585C180.525 16.9825 180.275 17.8513 180.275 18.9649V27.0001H175.926V18.3025C175.926 17.3041 175.763 16.5745 175.437 16.1137C175.11 15.6529 174.582 15.4225 173.853 15.4225C172.97 15.4225 172.283 15.7345 171.794 16.3585C171.304 16.9825 171.059 17.8513 171.059 18.9649Z" fill="#D8D8D8"/>
<path d="M0 0.400024V2.80002H28V0.400024H0Z" fill="#D8D8D8"/>
<path d="M0 5.20007V7.60007H28V5.20007H0Z" fill="#D8D8D8"/>
<path d="M0 10V12.4H28V10H0Z" fill="#D8D8D8"/>
<path d="M0 14.8V17.2H28V14.8H0Z" fill="#D8D8D8"/>
<path d="M0 19.6V22H28V19.6H0Z" fill="#D8D8D8"/>
<path d="M0 24.4V26.8H28V24.4H0Z" fill="#D8D8D8"/>
<path d="M0 29.2001V31.6001H28V29.2001H0Z" fill="#D8D8D8"/>
</svg>
