<svg width="24" height="19" viewBox="0 0 24 19" fill="none" xmlns="http://www.w3.org/2000/svg">
<path d="M21.8906 0H2.10939C1.78469 0 1.4807 0.0798281 1.20569 0.211406L11.9531 10.9589L14.362 8.64384C14.362 8.64384 14.3622 8.64361 14.3622 8.64352C14.3623 8.64342 14.3625 8.64333 14.3625 8.64333L22.7947 0.211594C22.5196 0.0799219 22.2154 0 21.8906 0Z" fill="#E8E8E8"/>
<path d="M23.7889 1.20605L15.8537 9.14077L23.7886 17.0756C23.9202 16.8006 24 16.4966 24 16.1719V2.10943C24 1.78491 23.9204 1.48098 23.7889 1.20605Z" fill="#E8E8E8"/>
<path d="M0.211406 1.20569C0.0798281 1.4807 0 1.78469 0 2.10939V16.1719C0 16.4964 0.0797344 16.8004 0.211219 17.0754L8.14636 9.14064L0.211406 1.20569Z" fill="#E8E8E8"/>
<path d="M14.8594 10.135L12.4503 12.4503C12.3129 12.5876 12.133 12.6563 11.9532 12.6563C11.7733 12.6563 11.5933 12.5876 11.456 12.4503L9.1406 10.1349L1.20532 18.0697C1.48038 18.2013 1.78456 18.2812 2.10935 18.2812H21.8906C22.2153 18.2812 22.5193 18.2014 22.7943 18.0698L14.8594 10.135Z" fill="#E8E8E8"/>
</svg>
