<svg width="70" height="70" viewBox="0 0 70 70" fill="none" xmlns="http://www.w3.org/2000/svg">
<path fill-rule="evenodd" clip-rule="evenodd" d="M44.1291 9.47871H70V46.5295H44.1293V70H25.8709V46.5295H0V9.47871H25.8709V5.4775L35 0L44.1291 5.4775V9.47871ZM35 4.78311L29.9724 7.79967H29.9723V9.47857H40.0276V7.79967L35 4.78311ZM40.0276 65.8984H29.9723V46.5295H40.0276V65.8984ZM4.10156 42.4279H65.8984V13.5803H4.10156V42.4279Z" fill="#F78434"/>
<path fill-rule="evenodd" clip-rule="evenodd" d="M27.0711 33.2503L25.5652 37.2042L21.7323 35.7444L28.1006 19.0239L31.5056 19.0203L37.82 35.7525L33.9827 37.2006L32.4919 33.2503H27.0711ZM28.6334 29.1487H30.9441L29.7942 26.1013L28.6334 29.1487Z" fill="#F78434"/>
<path d="M48.2624 32.5098H43.473V18.8439H39.3715V36.6114H48.2624V32.5098Z" fill="#F78434"/>
<path d="M60.4445 32.5098H54.7341V29.8352H60.0234V25.7336H54.7341V23.0588H60.4445V18.9573H50.6326V36.6114H60.4445V32.5098Z" fill="#F78434"/>
<path d="M14.4225 23.0677C15.9685 22.382 18.2923 24.0498 19.5359 25.1699L22.0805 21.9531C18.3441 18.535 15.2095 18.5088 13.2177 19.1469C11.2329 19.7463 9.8246 21.3158 9.53571 23.2572C9.25831 25.121 10.0587 26.9132 11.6248 27.9341C11.8963 28.1112 13.7677 28.911 16.014 29.7537C16.8487 30.0614 17.7008 30.6126 17.5895 31.2357C17.4978 31.7495 16.7818 32.5097 15.536 32.5097C13.5222 32.6266 12.0289 30.9844 10.9122 29.6362L7.87308 32.3906C9.74968 34.7915 12.2987 36.6792 15.5362 36.6112C18.584 36.6112 21.1457 34.6537 21.6274 31.9566C21.9922 29.9138 21.082 27.2512 17.4334 25.9055C15.813 25.3077 14.3002 24.658 13.7752 24.4289C13.4051 23.9654 13.5457 23.4259 14.4225 23.0677Z" fill="#F78434"/>
</svg>
