<svg width="25" height="20" viewBox="0 0 25 20" fill="none" xmlns="http://www.w3.org/2000/svg">
<mask id="mask0_2_25" style="mask-type:luminance" maskUnits="userSpaceOnUse" x="0" y="0" width="25" height="20">
<path fill-rule="evenodd" clip-rule="evenodd" d="M-3.05176e-05 0.043457H24.4606V19.9618H-3.05176e-05V0.043457Z" fill="white"/>
</mask>
<g mask="url(#mask0_2_25)">
<path fill-rule="evenodd" clip-rule="evenodd" d="M7.65977 19.9616C16.9089 19.9616 21.9666 12.2992 21.9666 5.65478C21.9666 5.43727 21.9621 5.22053 21.9523 5.0049C22.9341 4.29521 23.7874 3.4094 24.4606 2.40106C23.5596 2.80163 22.5899 3.07103 21.573 3.19281C22.611 2.57027 23.4082 1.58557 23.784 0.411611C22.8125 0.987534 21.7365 1.40605 20.591 1.63199C19.6736 0.654776 18.367 0.043457 16.9205 0.043457C14.1437 0.043457 11.892 2.29521 11.892 5.07099C11.892 5.46576 11.936 5.84945 12.0224 6.21761C7.84317 6.00739 4.13742 4.00667 1.65761 0.963937C1.22581 1.70715 0.976792 2.57046 0.976792 3.49147C0.976792 5.23588 1.86466 6.77607 3.21435 7.67684C2.38941 7.65156 1.61454 7.42504 0.93708 7.04811C0.936312 7.06931 0.936312 7.08969 0.936312 7.11219C0.936312 9.54753 2.6695 11.5809 4.97056 12.0415C4.54806 12.1564 4.10331 12.2184 3.64466 12.2184C3.32111 12.2184 3.006 12.1866 2.69948 12.1277C3.33967 14.1257 5.19612 15.5795 7.39694 15.6201C5.67593 16.9691 3.50773 17.7726 1.15161 17.7726C0.746192 17.7726 0.345617 17.7494 -0.0480042 17.7031C2.17732 19.1294 4.8201 19.9618 7.65996 19.9618" fill="#1DA1F2"/>
</g>
</svg>
