<svg width="30" height="20" viewBox="0 0 30 20" fill="none" xmlns="http://www.w3.org/2000/svg">
<mask id="mask0_2_39" style="mask-type:luminance" maskUnits="userSpaceOnUse" x="0" y="0" width="30" height="20">
<path fill-rule="evenodd" clip-rule="evenodd" d="M0.511719 0H29.0319V19.9713H0.511719V0Z" fill="white"/>
</mask>
<g mask="url(#mask0_2_39)">
<path fill-rule="evenodd" clip-rule="evenodd" d="M28.4442 3.12501C28.1154 1.90306 27.152 0.939889 25.9305 0.610864C23.6984 0 14.77 0 14.77 0C14.77 0 5.84173 0 3.60964 0.587577C2.41143 0.916379 1.42452 1.90329 1.09572 3.12501C0.508362 5.35688 0.508362 9.98563 0.508362 9.98563C0.508362 9.98563 0.508362 14.6377 1.09572 16.8463C1.42474 18.068 2.38792 19.0314 3.60987 19.3604C5.86524 19.9713 14.7702 19.9713 14.7702 19.9713C14.7702 19.9713 23.6984 19.9713 25.9305 19.3837C27.1523 19.0549 28.1154 18.0915 28.4445 16.8697C29.0318 14.6377 29.0318 10.0091 29.0318 10.0091C29.0318 10.0091 29.0553 5.35688 28.4442 3.12501Z" fill="#FF0000"/>
</g>
<path fill-rule="evenodd" clip-rule="evenodd" d="M11.9273 14.2619L19.3517 9.98568L11.9273 5.70947V14.2619Z" fill="white"/>
</svg>
